<svg width="0" height="0" class="hidden">
  <!--Close-->
  <symbol id="close" stroke="currentColor" fill="currentColor" stroke-width="0" focusable="false" xmlns="http://www.w3.org/2000/svg" viewBox="0 0 16 16" >
    <path d="M4.646 4.646a.5.5 0 0 1 .708 0L8 7.293l2.646-2.647a.5.5 0 0 1 .708.708L8.707 8l2.647 2.646a.5.5 0 0 1-.708.708L8 8.707l-2.646 2.647a.5.5 0 0 1-.708-.708L7.293 8 4.646 5.354a.5.5 0 0 1 0-.708z" />
  </symbol>

<!--Arrow-Left-->
  <symbol id="arrow-left" stroke="currentColor" fill="currentColor" stroke-width="0" focusable="false" xmlns="http://www.w3.org/2000/svg" viewBox="0 0 16 16">
    <path fill-rule="evenodd" d="M15 8a.5.5 0 0 0-.5-.5H2.707l3.147-3.146a.5.5 0 1 0-.708-.708l-4 4a.5.5 0 0 0 0 .708l4 4a.5.5 0 0 0 .708-.708L2.707 8.5H14.5A.5.5 0 0 0 15 8z" />
  </symbol>
</svg>
